<mxfile host="65bd71144e" pages="2">
    <diagram id="fLW1Ozm4U1zsKt41RqUh" name="PÃ¡gina-1">
        <mxGraphModel dx="926" dy="646" grid="1" gridSize="10" guides="1" tooltips="1" connect="1" arrows="1" fold="1" page="1" pageScale="1" pageWidth="1169" pageHeight="827" math="0" shadow="0">
            <root>
                <mxCell id="0"/>
                <mxCell id="1" parent="0"/>
                <mxCell id="PllpeTJ6p1Ql6Hsuyy5I-1" value="Modulo gerente" style="ellipse;whiteSpace=wrap;html=1;" parent="1" vertex="1">
                    <mxGeometry x="370" y="20" width="120" height="80" as="geometry"/>
                </mxCell>
                <mxCell id="PllpeTJ6p1Ql6Hsuyy5I-3" value="gerente ingresa al sistema" style="whiteSpace=wrap;html=1;aspect=fixed;" parent="1" vertex="1">
                    <mxGeometry x="385" y="140" width="85" height="85" as="geometry"/>
                </mxCell>
                <mxCell id="PllpeTJ6p1Ql6Hsuyy5I-4" value="" style="endArrow=classic;html=1;rounded=0;" parent="1" edge="1">
                    <mxGeometry width="50" height="50" relative="1" as="geometry">
                        <mxPoint x="430" y="100" as="sourcePoint"/>
                        <mxPoint x="429.5" y="140" as="targetPoint"/>
                    </mxGeometry>
                </mxCell>
                <mxCell id="PllpeTJ6p1Ql6Hsuyy5I-6" value="" style="endArrow=classic;html=1;rounded=0;exitX=0.5;exitY=1;exitDx=0;exitDy=0;" parent="1" source="PllpeTJ6p1Ql6Hsuyy5I-3" edge="1">
                    <mxGeometry width="50" height="50" relative="1" as="geometry">
                        <mxPoint x="440" y="110" as="sourcePoint"/>
                        <mxPoint x="428" y="280" as="targetPoint"/>
                    </mxGeometry>
                </mxCell>
                <mxCell id="PllpeTJ6p1Ql6Hsuyy5I-7" value="Que accion precisa hacer?" style="rhombus;whiteSpace=wrap;html=1;" parent="1" vertex="1">
                    <mxGeometry x="360" y="280" width="140" height="80" as="geometry"/>
                </mxCell>
                <mxCell id="PllpeTJ6p1Ql6Hsuyy5I-8" value="" style="endArrow=none;html=1;rounded=0;entryX=0.5;entryY=1;entryDx=0;entryDy=0;" parent="1" target="PllpeTJ6p1Ql6Hsuyy5I-7" edge="1">
                    <mxGeometry width="50" height="50" relative="1" as="geometry">
                        <mxPoint x="430" y="390" as="sourcePoint"/>
                        <mxPoint x="430" y="380" as="targetPoint"/>
                    </mxGeometry>
                </mxCell>
                <mxCell id="PllpeTJ6p1Ql6Hsuyy5I-9" value="" style="endArrow=none;html=1;rounded=0;" parent="1" edge="1">
                    <mxGeometry width="50" height="50" relative="1" as="geometry">
                        <mxPoint x="170" y="390" as="sourcePoint"/>
                        <mxPoint x="920" y="390" as="targetPoint"/>
                    </mxGeometry>
                </mxCell>
                <mxCell id="PllpeTJ6p1Ql6Hsuyy5I-11" value="Cierre de caja" style="text;html=1;strokeColor=none;fillColor=none;align=center;verticalAlign=middle;whiteSpace=wrap;rounded=0;" parent="1" vertex="1">
                    <mxGeometry x="190" y="350" width="60" height="30" as="geometry"/>
                </mxCell>
                <mxCell id="PllpeTJ6p1Ql6Hsuyy5I-14" value="" style="endArrow=classic;html=1;rounded=0;exitX=0.5;exitY=1;exitDx=0;exitDy=0;" parent="1" edge="1">
                    <mxGeometry width="50" height="50" relative="1" as="geometry">
                        <mxPoint x="170" y="390" as="sourcePoint"/>
                        <mxPoint x="170.5" y="445" as="targetPoint"/>
                    </mxGeometry>
                </mxCell>
                <mxCell id="PllpeTJ6p1Ql6Hsuyy5I-15" value="Valida estado de las mesas&amp;nbsp;" style="whiteSpace=wrap;html=1;aspect=fixed;" parent="1" vertex="1">
                    <mxGeometry x="130" y="450" width="85" height="85" as="geometry"/>
                </mxCell>
                <mxCell id="PllpeTJ6p1Ql6Hsuyy5I-17" value="" style="endArrow=classic;html=1;rounded=0;exitX=0.5;exitY=1;exitDx=0;exitDy=0;" parent="1" edge="1">
                    <mxGeometry width="50" height="50" relative="1" as="geometry">
                        <mxPoint x="170" y="535" as="sourcePoint"/>
                        <mxPoint x="170.5" y="590" as="targetPoint"/>
                    </mxGeometry>
                </mxCell>
                <mxCell id="PllpeTJ6p1Ql6Hsuyy5I-19" value="Mesas abiertas?" style="rhombus;whiteSpace=wrap;html=1;" parent="1" vertex="1">
                    <mxGeometry x="100" y="590" width="140" height="80" as="geometry"/>
                </mxCell>
                <mxCell id="PllpeTJ6p1Ql6Hsuyy5I-21" value="" style="endArrow=classic;html=1;rounded=0;exitX=0.5;exitY=1;exitDx=0;exitDy=0;" parent="1" source="PllpeTJ6p1Ql6Hsuyy5I-19" edge="1">
                    <mxGeometry width="50" height="50" relative="1" as="geometry">
                        <mxPoint x="180" y="690" as="sourcePoint"/>
                        <mxPoint x="170" y="730" as="targetPoint"/>
                    </mxGeometry>
                </mxCell>
                <mxCell id="PllpeTJ6p1Ql6Hsuyy5I-22" value="Si" style="text;html=1;strokeColor=none;fillColor=none;align=center;verticalAlign=middle;whiteSpace=wrap;rounded=0;" parent="1" vertex="1">
                    <mxGeometry x="100" y="690" width="60" height="30" as="geometry"/>
                </mxCell>
                <mxCell id="PllpeTJ6p1Ql6Hsuyy5I-24" value="" style="endArrow=classic;html=1;rounded=0;" parent="1" edge="1">
                    <mxGeometry width="50" height="50" relative="1" as="geometry">
                        <mxPoint x="240" y="629.5" as="sourcePoint"/>
                        <mxPoint x="310" y="629.5" as="targetPoint"/>
                    </mxGeometry>
                </mxCell>
                <mxCell id="PllpeTJ6p1Ql6Hsuyy5I-25" value="No" style="text;html=1;strokeColor=none;fillColor=none;align=center;verticalAlign=middle;whiteSpace=wrap;rounded=0;" parent="1" vertex="1">
                    <mxGeometry x="240" y="600" width="60" height="30" as="geometry"/>
                </mxCell>
                <mxCell id="PllpeTJ6p1Ql6Hsuyy5I-26" value="Emite reporte diario" style="whiteSpace=wrap;html=1;aspect=fixed;" parent="1" vertex="1">
                    <mxGeometry x="310" y="585" width="85" height="85" as="geometry"/>
                </mxCell>
                <mxCell id="PllpeTJ6p1Ql6Hsuyy5I-28" value="" style="endArrow=classic;html=1;rounded=0;exitX=0.588;exitY=1.035;exitDx=0;exitDy=0;exitPerimeter=0;" parent="1" source="PllpeTJ6p1Ql6Hsuyy5I-26" edge="1">
                    <mxGeometry width="50" height="50" relative="1" as="geometry">
                        <mxPoint x="290" y="719" as="sourcePoint"/>
                        <mxPoint x="360" y="719" as="targetPoint"/>
                    </mxGeometry>
                </mxCell>
                <mxCell id="PllpeTJ6p1Ql6Hsuyy5I-30" value="validar estado de mesas" style="text;html=1;strokeColor=none;fillColor=none;align=center;verticalAlign=middle;whiteSpace=wrap;rounded=0;" parent="1" vertex="1">
                    <mxGeometry x="750" y="350" width="60" height="30" as="geometry"/>
                </mxCell>
                <mxCell id="PllpeTJ6p1Ql6Hsuyy5I-31" value="" style="endArrow=classic;html=1;rounded=0;exitX=0.5;exitY=1;exitDx=0;exitDy=0;" parent="1" edge="1">
                    <mxGeometry width="50" height="50" relative="1" as="geometry">
                        <mxPoint x="920" y="390" as="sourcePoint"/>
                        <mxPoint x="920.5" y="445" as="targetPoint"/>
                    </mxGeometry>
                </mxCell>
                <mxCell id="PllpeTJ6p1Ql6Hsuyy5I-32" value="Validar pedidos" style="whiteSpace=wrap;html=1;aspect=fixed;" parent="1" vertex="1">
                    <mxGeometry x="880" y="450" width="70" height="70" as="geometry"/>
                </mxCell>
                <mxCell id="PllpeTJ6p1Ql6Hsuyy5I-33" value="" style="endArrow=classic;html=1;rounded=0;exitX=0.5;exitY=1;exitDx=0;exitDy=0;" parent="1" edge="1">
                    <mxGeometry width="50" height="50" relative="1" as="geometry">
                        <mxPoint x="920" y="520" as="sourcePoint"/>
                        <mxPoint x="920.5" y="575" as="targetPoint"/>
                    </mxGeometry>
                </mxCell>
                <mxCell id="PllpeTJ6p1Ql6Hsuyy5I-34" value="Finalizado?" style="rhombus;whiteSpace=wrap;html=1;" parent="1" vertex="1">
                    <mxGeometry x="850" y="575" width="140" height="80" as="geometry"/>
                </mxCell>
                <mxCell id="PllpeTJ6p1Ql6Hsuyy5I-36" value="" style="endArrow=classic;html=1;rounded=0;exitX=0.5;exitY=1;exitDx=0;exitDy=0;" parent="1" edge="1">
                    <mxGeometry width="50" height="50" relative="1" as="geometry">
                        <mxPoint x="919.5" y="660" as="sourcePoint"/>
                        <mxPoint x="919.5" y="720" as="targetPoint"/>
                    </mxGeometry>
                </mxCell>
                <mxCell id="PllpeTJ6p1Ql6Hsuyy5I-37" value="Si" style="text;html=1;strokeColor=none;fillColor=none;align=center;verticalAlign=middle;whiteSpace=wrap;rounded=0;" parent="1" vertex="1">
                    <mxGeometry x="850" y="670" width="60" height="30" as="geometry"/>
                </mxCell>
                <mxCell id="PllpeTJ6p1Ql6Hsuyy5I-38" value="Cierra mesa&amp;nbsp;" style="whiteSpace=wrap;html=1;aspect=fixed;" parent="1" vertex="1">
                    <mxGeometry x="880" y="720" width="85" height="85" as="geometry"/>
                </mxCell>
                <mxCell id="PllpeTJ6p1Ql6Hsuyy5I-40" value="" style="endArrow=classic;html=1;rounded=0;exitX=0.5;exitY=1;exitDx=0;exitDy=0;" parent="1" edge="1">
                    <mxGeometry width="50" height="50" relative="1" as="geometry">
                        <mxPoint x="922" y="805" as="sourcePoint"/>
                        <mxPoint x="922" y="865" as="targetPoint"/>
                    </mxGeometry>
                </mxCell>
                <mxCell id="PllpeTJ6p1Ql6Hsuyy5I-41" value="FIN" style="ellipse;whiteSpace=wrap;html=1;" parent="1" vertex="1">
                    <mxGeometry x="862.5" y="1040" width="120" height="50" as="geometry"/>
                </mxCell>
                <mxCell id="PllpeTJ6p1Ql6Hsuyy5I-42" value="No" style="text;html=1;strokeColor=none;fillColor=none;align=center;verticalAlign=middle;whiteSpace=wrap;rounded=0;" parent="1" vertex="1">
                    <mxGeometry x="990" y="585" width="60" height="30" as="geometry"/>
                </mxCell>
                <mxCell id="PllpeTJ6p1Ql6Hsuyy5I-45" value="" style="endArrow=classic;html=1;rounded=0;exitX=0.117;exitY=1.033;exitDx=0;exitDy=0;exitPerimeter=0;" parent="1" source="PllpeTJ6p1Ql6Hsuyy5I-42" edge="1">
                    <mxGeometry width="50" height="50" relative="1" as="geometry">
                        <mxPoint x="1060" y="615" as="sourcePoint"/>
                        <mxPoint x="1130" y="615" as="targetPoint"/>
                    </mxGeometry>
                </mxCell>
                <mxCell id="PllpeTJ6p1Ql6Hsuyy5I-46" value="Controla el estado del pedido por un tiempo" style="whiteSpace=wrap;html=1;aspect=fixed;" parent="1" vertex="1">
                    <mxGeometry x="1130" y="585" width="70" height="70" as="geometry"/>
                </mxCell>
                <mxCell id="PllpeTJ6p1Ql6Hsuyy5I-49" value="" style="endArrow=classic;html=1;rounded=0;exitX=0.5;exitY=1;exitDx=0;exitDy=0;" parent="1" edge="1">
                    <mxGeometry width="50" height="50" relative="1" as="geometry">
                        <mxPoint x="1169" y="655" as="sourcePoint"/>
                        <mxPoint x="1169" y="715" as="targetPoint"/>
                    </mxGeometry>
                </mxCell>
                <mxCell id="PllpeTJ6p1Ql6Hsuyy5I-50" value="Envia mensaje cocina solicitando status" style="whiteSpace=wrap;html=1;aspect=fixed;" parent="1" vertex="1">
                    <mxGeometry x="1140" y="720" width="70" height="70" as="geometry"/>
                </mxCell>
                <mxCell id="PllpeTJ6p1Ql6Hsuyy5I-51" value="" style="endArrow=classic;html=1;rounded=0;exitX=0.5;exitY=1;exitDx=0;exitDy=0;" parent="1" edge="1">
                    <mxGeometry width="50" height="50" relative="1" as="geometry">
                        <mxPoint x="1174.5" y="790" as="sourcePoint"/>
                        <mxPoint x="1174.5" y="850" as="targetPoint"/>
                    </mxGeometry>
                </mxCell>
                <mxCell id="PllpeTJ6p1Ql6Hsuyy5I-52" value="FIN" style="ellipse;whiteSpace=wrap;html=1;" parent="1" vertex="1">
                    <mxGeometry x="1120" y="850" width="120" height="50" as="geometry"/>
                </mxCell>
                <mxCell id="2" value="Genera factura" style="whiteSpace=wrap;html=1;aspect=fixed;" vertex="1" parent="1">
                    <mxGeometry x="880" y="875" width="85" height="85" as="geometry"/>
                </mxCell>
                <mxCell id="3" value="" style="endArrow=classic;html=1;rounded=0;exitX=0.5;exitY=1;exitDx=0;exitDy=0;" edge="1" parent="1" source="2">
                    <mxGeometry width="50" height="50" relative="1" as="geometry">
                        <mxPoint x="922" y="980" as="sourcePoint"/>
                        <mxPoint x="922" y="1040" as="targetPoint"/>
                    </mxGeometry>
                </mxCell>
                <mxCell id="6" style="edgeStyle=none;html=1;entryX=-0.035;entryY=0.412;entryDx=0;entryDy=0;entryPerimeter=0;" edge="1" parent="1" source="5" target="PllpeTJ6p1Ql6Hsuyy5I-15">
                    <mxGeometry relative="1" as="geometry">
                        <Array as="points">
                            <mxPoint x="20" y="773"/>
                            <mxPoint x="20" y="485"/>
                        </Array>
                    </mxGeometry>
                </mxCell>
                <mxCell id="5" value="Se genera una espera&amp;nbsp;" style="whiteSpace=wrap;html=1;aspect=fixed;" vertex="1" parent="1">
                    <mxGeometry x="130" y="730" width="85" height="85" as="geometry"/>
                </mxCell>
                <mxCell id="10" style="edgeStyle=none;html=1;entryX=0.5;entryY=0;entryDx=0;entryDy=0;" edge="1" parent="1" source="7" target="8">
                    <mxGeometry relative="1" as="geometry"/>
                </mxCell>
                <mxCell id="7" value="Cierre de caja" style="whiteSpace=wrap;html=1;aspect=fixed;" vertex="1" parent="1">
                    <mxGeometry x="320" y="730" width="90" height="90" as="geometry"/>
                </mxCell>
                <mxCell id="8" value="FIN" style="ellipse;whiteSpace=wrap;html=1;" vertex="1" parent="1">
                    <mxGeometry x="305" y="892.5" width="120" height="50" as="geometry"/>
                </mxCell>
            </root>
        </mxGraphModel>
    </diagram>
    <diagram id="Kv7rAWVjF-ezpXTNY-qQ" name="PÃ¡gina-2">
        <mxGraphModel dx="868" dy="442" grid="1" gridSize="10" guides="1" tooltips="1" connect="1" arrows="1" fold="1" page="1" pageScale="1" pageWidth="1169" pageHeight="827" math="0" shadow="0">
            <root>
                <mxCell id="0"/>
                <mxCell id="1" parent="0"/>
            </root>
        </mxGraphModel>
    </diagram>
</mxfile>